<svg width="40" height="40" viewBox="0 0 40 40" fill="none" xmlns="http://www.w3.org/2000/svg">
<path d="M39.8334 7.00003C39.6667 6.83339 39.5 6.66667 39.1667 6.66667H7.5L6.66664 2.33339C6.66664 2.00003 6.16664 1.66675 5.83328 1.66675H0.833281C0.333359 1.66667 0 2.00003 0 2.50003C0 3.00003 0.333359 3.33339 0.833359 3.33339H5.16672L9.16672 23.6667C9.66672 26.3334 12.1667 28.3334 14.8334 28.3334H34C34.5 28.3334 34.8334 28 34.8334 27.5C34.8334 27 34.5 26.6667 34 26.6667H15C13.6666 26.6667 12.3334 26 11.6666 24.8333L36 21.5C36.3334 21.5 36.6666 21.1667 36.6666 20.8334L40 7.50003C40 7.50003 40 7.16667 39.8334 7.00003ZM35.1666 20L10.8333 23.1667L7.83328 8.16667H38L35.1666 20Z" fill="white"/>
<path d="M14.1666 30C11.8334 30 10 31.8334 10 34.1666C10 36.5 11.8334 38.3333 14.1666 38.3333C16.5 38.3333 18.3333 36.4999 18.3333 34.1666C18.3334 31.8334 16.5 30 14.1666 30ZM14.1666 36.6666C12.8333 36.6666 11.6666 35.4999 11.6666 34.1666C11.6666 32.8334 12.8333 31.6666 14.1666 31.6666C15.5 31.6666 16.6666 32.8334 16.6666 34.1666C16.6666 35.4999 15.5 36.6666 14.1666 36.6666Z" fill="white"/>
<path d="M30.8334 30C28.5 30 26.6667 31.8334 26.6667 34.1666C26.6667 36.5 28.5001 38.3333 30.8334 38.3333C33.1667 38.3333 35 36.4999 35 34.1666C35 31.8334 33.1667 30 30.8334 30ZM30.8334 36.6666C29.5 36.6666 28.3334 35.4999 28.3334 34.1666C28.3334 32.8334 29.5 31.6666 30.8334 31.6666C32.1667 31.6666 33.3334 32.8334 33.3334 34.1666C33.3334 35.4999 32.1667 36.6666 30.8334 36.6666Z" fill="white"/>
</svg>
