<svg width="15" height="15" viewBox="0 0 15 15" fill="none" xmlns="http://www.w3.org/2000/svg">
<path d="M14.8694 14.235L11.2242 10.5898C12.202 9.46563 12.794 7.99889 12.794 6.39579C12.794 2.86696 9.92373 0 6.39823 0C2.8694 0 0.00244141 2.87029 0.00244141 6.39579C0.00244141 9.92129 2.87273 12.7916 6.39823 12.7916C8.00133 12.7916 9.46807 12.1996 10.5922 11.2217L14.2375 14.867C14.3239 14.9534 14.4404 15 14.5534 15C14.6665 15 14.7829 14.9568 14.8694 14.867C15.0424 14.694 15.0424 14.408 14.8694 14.235ZM0.89712 6.39579C0.89712 3.36253 3.36497 0.898004 6.3949 0.898004C9.42816 0.898004 11.8927 3.36585 11.8927 6.39579C11.8927 9.42572 9.42816 11.8969 6.3949 11.8969C3.36497 11.8969 0.89712 9.42905 0.89712 6.39579Z" fill="#868686"/>
</svg>
